solid body
 facet normal -1 -0 -0
  outer loop
   vertex 0.01 0.015 0.025
   vertex 0.01 0.015 0.005
   vertex 0.01 -0.015 0.025
  endloop
 endfacet
 facet normal -1 0 0
  outer loop
   vertex 0.01 -0.015 0.025
   vertex 0.01 0.015 0.005
   vertex 0.01 -0.015 0.005
  endloop
 endfacet
 facet normal 1 -0 0
  outer loop
   vertex 0.0025 -0.015 0.025
   vertex 0.0025 -0.015 0.005
   vertex 0.0025 0.015 0.025
  endloop
 endfacet
 facet normal 1 0 0
  outer loop
   vertex 0.0025 0.015 0.025
   vertex 0.0025 -0.015 0.005
   vertex 0.0025 0.015 0.005
  endloop
 endfacet
 facet normal -1 -0 -0
  outer loop
   vertex -0.0025 0.015 0.025
   vertex -0.0025 0.015 0.005
   vertex -0.0025 -0.015 0.025
  endloop
 endfacet
 facet normal -1 0 0
  outer loop
   vertex -0.0025 -0.015 0.025
   vertex -0.0025 0.015 0.005
   vertex -0.0025 -0.015 0.005
  endloop
 endfacet
 facet normal 1 0 -0
  outer loop
   vertex -0.01 0.015 0.005
   vertex -0.01 0.015 0.025
   vertex -0.01 -0.015 0.005
  endloop
 endfacet
 facet normal 1 0 0
  outer loop
   vertex -0.01 -0.015 0.005
   vertex -0.01 0.015 0.025
   vertex -0.01 -0.015 0.025
  endloop
 endfacet
 facet normal 1 0 0
  outer loop
   vertex 0.015 0.015 0.025
   vertex 0.015 -0.015 0.025
   vertex 0.015 0.015 0
  endloop
 endfacet
 facet normal 1 0 0
  outer loop
   vertex 0.015 0.015 0
   vertex 0.015 -0.015 0.025
   vertex 0.015 -0.015 0
  endloop
 endfacet
 facet normal 0 0 1
  outer loop
   vertex 0.0025 -0.015 0.005
   vertex 0.01 -0.015 0.005
   vertex 0.0025 0.015 0.005
  endloop
 endfacet
 facet normal -0 0 1
  outer loop
   vertex 0.0025 0.015 0.005
   vertex 0.01 -0.015 0.005
   vertex 0.01 0.015 0.005
  endloop
 endfacet
 facet normal 0 -1 0
  outer loop
   vertex 0.01 -0.015 0.025
   vertex 0.01 -0.015 0.005
   vertex 0.015 -0.015 0.025
  endloop
 endfacet
 facet normal 0 -1 -0
  outer loop
   vertex 0.015 -0.015 0.025
   vertex 0.01 -0.015 0.005
   vertex 0.015 -0.015 0
  endloop
 endfacet
 facet normal -0 -1 -0
  outer loop
   vertex 0.01 -0.015 0.005
   vertex 0.0025 -0.015 0.005
   vertex 0.015 -0.015 0
  endloop
 endfacet
 facet normal 0 -1 0
  outer loop
   vertex 0.015 -0.015 0
   vertex 0.0025 -0.015 0.005
   vertex -0.0025 -0.015 0.005
  endloop
 endfacet
 facet normal 0 -1 0
  outer loop
   vertex 0.015 -0.015 0
   vertex -0.0025 -0.015 0.005
   vertex -0.015 -0.015 0
  endloop
 endfacet
 facet normal 0 -1 0
  outer loop
   vertex -0.015 -0.015 0
   vertex -0.0025 -0.015 0.005
   vertex -0.01 -0.015 0.005
  endloop
 endfacet
 facet normal 0 -1 0
  outer loop
   vertex -0.015 -0.015 0
   vertex -0.01 -0.015 0.005
   vertex -0.015 -0.015 0.025
  endloop
 endfacet
 facet normal 0 -1 0
  outer loop
   vertex -0.015 -0.015 0.025
   vertex -0.01 -0.015 0.005
   vertex -0.01 -0.015 0.025
  endloop
 endfacet
 facet normal -0 -1 -0
  outer loop
   vertex 0.0025 -0.015 0.025
   vertex -0.0025 -0.015 0.025
   vertex 0.0025 -0.015 0.005
  endloop
 endfacet
 facet normal 0 -1 0
  outer loop
   vertex 0.0025 -0.015 0.005
   vertex -0.0025 -0.015 0.025
   vertex -0.0025 -0.015 0.005
  endloop
 endfacet
 facet normal -1 0 0
  outer loop
   vertex -0.015 -0.015 0.025
   vertex -0.015 0.015 0.025
   vertex -0.015 -0.015 0
  endloop
 endfacet
 facet normal -1 0 0
  outer loop
   vertex -0.015 -0.015 0
   vertex -0.015 0.015 0.025
   vertex -0.015 0.015 0
  endloop
 endfacet
 facet normal 0 1 0
  outer loop
   vertex -0.01 0.015 0.025
   vertex -0.01 0.015 0.005
   vertex -0.015 0.015 0.025
  endloop
 endfacet
 facet normal 0 1 0
  outer loop
   vertex -0.015 0.015 0.025
   vertex -0.01 0.015 0.005
   vertex -0.015 0.015 0
  endloop
 endfacet
 facet normal -0 1 0
  outer loop
   vertex -0.01 0.015 0.005
   vertex -0.0025 0.015 0.005
   vertex -0.015 0.015 0
  endloop
 endfacet
 facet normal 0 1 0
  outer loop
   vertex -0.015 0.015 0
   vertex -0.0025 0.015 0.005
   vertex 0.0025 0.015 0.005
  endloop
 endfacet
 facet normal 0 1 0
  outer loop
   vertex -0.015 0.015 0
   vertex 0.0025 0.015 0.005
   vertex 0.015 0.015 0
  endloop
 endfacet
 facet normal 0 1 0
  outer loop
   vertex 0.015 0.015 0
   vertex 0.0025 0.015 0.005
   vertex 0.01 0.015 0.005
  endloop
 endfacet
 facet normal 0 1 -0
  outer loop
   vertex 0.015 0.015 0
   vertex 0.01 0.015 0.005
   vertex 0.015 0.015 0.025
  endloop
 endfacet
 facet normal 0 1 0
  outer loop
   vertex 0.015 0.015 0.025
   vertex 0.01 0.015 0.005
   vertex 0.01 0.015 0.025
  endloop
 endfacet
 facet normal -0 1 0
  outer loop
   vertex -0.0025 0.015 0.025
   vertex 0.0025 0.015 0.025
   vertex -0.0025 0.015 0.005
  endloop
 endfacet
 facet normal 0 1 0
  outer loop
   vertex -0.0025 0.015 0.005
   vertex 0.0025 0.015 0.025
   vertex 0.0025 0.015 0.005
  endloop
 endfacet
 facet normal 0 0 1
  outer loop
   vertex -0.01 0.015 0.025
   vertex -0.015 0.015 0.025
   vertex -0.01 -0.015 0.025
  endloop
 endfacet
 facet normal 0 0 1
  outer loop
   vertex -0.01 -0.015 0.025
   vertex -0.015 0.015 0.025
   vertex -0.015 -0.015 0.025
  endloop
 endfacet
 facet normal 0 0 1
  outer loop
   vertex -0.0025 0.015 0.005
   vertex -0.01 0.015 0.005
   vertex -0.0025 -0.015 0.005
  endloop
 endfacet
 facet normal 0 0 1
  outer loop
   vertex -0.0025 -0.015 0.005
   vertex -0.01 0.015 0.005
   vertex -0.01 -0.015 0.005
  endloop
 endfacet
 facet normal 0 0 1
  outer loop
   vertex -0.0025 -0.015 0.025
   vertex 0.0025 -0.015 0.025
   vertex -0.0025 0.015 0.025
  endloop
 endfacet
 facet normal -0 0 1
  outer loop
   vertex -0.0025 0.015 0.025
   vertex 0.0025 -0.015 0.025
   vertex 0.0025 0.015 0.025
  endloop
 endfacet
 facet normal 0 0 1
  outer loop
   vertex 0.01 -0.015 0.025
   vertex 0.015 -0.015 0.025
   vertex 0.01 0.015 0.025
  endloop
 endfacet
 facet normal -0 0 1
  outer loop
   vertex 0.01 0.015 0.025
   vertex 0.015 -0.015 0.025
   vertex 0.015 0.015 0.025
  endloop
 endfacet
 facet normal 0 0 -1
  outer loop
   vertex -0.015 0.015 0
   vertex 0.015 0.015 0
   vertex -0.015 -0.015 0
  endloop
 endfacet
 facet normal 0 0 -1
  outer loop
   vertex -0.015 -0.015 0
   vertex 0.015 0.015 0
   vertex 0.015 -0.015 0
  endloop
 endfacet
endsolid body
